<svg xmlns="http://www.w3.org/2000/svg" xmlns:xlink="http://www.w3.org/1999/xlink" width="352.766937" height="354.807037" viewBox="0 0 352.767 354.807"><path d="M19.7863 85.5234L27.0988 84.3516Q27.2863 88.7812 28.3878 90.6094Q29.4894 92.4141 31.2238 92.5312Q32.8409 92.625 34.13 90.9844Q35.4425 89.3438 35.9347 84.6562L37.5519 69.5859Q30.6378 72.1641 23.4425 73.8984L21.6144 66.1172Q30.4503 64.1016 38.4191 60.75L40.2472 43.6641L26.2316 43.6641L27.0988 35.0156L41.2081 35.0156L42.4503 22.9219Q37.0831 24.5625 31.505 25.6172L29.3019 18.0234Q35.7238 16.6875 42.1925 14.5781Q48.6847 12.4453 54.3566 9.46875L58.2003 16.5938Q54.5441 18.3984 50.6066 20.0391L48.9894 35.0156L60.8956 35.0156Q61.3644 27.5391 62.0206 20.5312Q62.7003 13.5234 63.4738 7.75781L71.0675 7.75781Q70.2941 13.7109 69.6613 20.6719Q69.0519 27.6328 68.5597 35.0156L88.8097 35.0156L87.9659 43.6641L68.0909 43.6641Q67.9034 49.4062 67.8331 55.125Q67.7863 60.8438 67.9034 66.1172Q71.255 62.1797 73.7394 57.8203Q76.2472 53.4375 78.2628 48.75L85.4581 51.7266Q82.4816 58.5469 78.4034 64.7812Q74.3253 71.0156 68.4659 76.6875Q69.6144 92.2266 73.1769 92.2266Q75.005 92.2266 76.3878 87.4922Q77.7706 82.7344 78.8253 75.2344L85.9503 76.1953Q85.3644 81 84.4503 85.5234Q83.5363 90.0234 82.0363 93.5625Q80.5597 97.125 78.3566 99.2344Q76.1534 101.344 72.9894 101.344Q67.4113 101.344 64.7628 96.2109Q62.1378 91.0781 61.1769 82.7344Q56.5597 86.0859 51.1925 88.9688L48.3097 81.4688Q51.755 79.6641 54.7784 77.6953Q57.8019 75.7266 60.4034 73.6172Q60.3097 72.9375 60.3097 72.1641Q60.0284 65.6484 60.0753 58.3594Q60.1222 51.0469 60.4034 43.6641L48.1222 43.6641L46.6691 56.9062Q49.7394 55.3594 52.7159 53.5547L56.2784 60.5625Q51.1925 63.6328 45.7081 66.1172L43.6925 85.6172Q43.13 91.5703 41.2081 94.875Q39.2863 98.1797 36.6378 99.4688Q34.0128 100.781 31.0363 100.688Q25.7394 100.477 22.9503 96.3516Q20.1847 92.2266 19.7863 85.5234ZM82.2003 30.9844Q77.7706 21.6797 72.6847 14.6719L79.0363 10.5469Q81.5206 13.8047 84.0988 18.2344Q86.7003 22.6406 89.0206 27.4219L82.2003 30.9844ZM124.922 11.8828Q121.078 18.3047 116.508 24.2578Q111.961 30.2109 106.102 35.8828L100.336 30.2109Q105.727 25.125 110.039 19.5703Q114.352 13.9922 118.008 7.85156L124.922 11.8828ZM117.047 100.875L114.352 93.0938Q117.821 91.9453 120.797 90.7031L129.235 10.8281L156.985 10.8281Q160.617 10.8281 162.68 12.7969Q164.766 14.7656 164.274 18.5156L160.336 56.5312L146.321 56.5312Q146.602 63.8203 148.149 69.9609Q151.032 67.9453 153.61 65.4609Q156.211 62.9531 158.508 59.9766L163.805 65.6484Q158.039 72.4453 150.75 77.4375Q155.344 88.1016 164.18 93.4688L158.719 101.062Q148.43 94.6406 143.672 82.9688Q138.938 71.2969 138.446 56.5312L132.703 56.5312L129.516 86.8594Q133.453 84.9375 136.922 82.7344L140.367 90.0234Q134.813 93.375 128.953 96.0234Q123.094 98.6719 117.047 100.875ZM135.469 30.0234L154.875 30.0234L156.024 18.9844L136.617 18.9844L135.469 30.0234ZM110.907 100.688L102.75 100.688L107.344 58.3359Q104.766 61.125 102.071 63.7266L96.7972 57.4688Q103.407 51.5391 108.633 44.7188Q113.883 37.8984 118.383 30.6094L124.735 35.3906Q122.813 38.3672 120.797 41.3438Q118.782 44.3203 116.555 47.2031L110.907 100.688ZM133.547 48.4453L152.953 48.4453L154.008 37.8984L134.602 37.8984L133.547 48.4453ZM206.527 84.9375Q207.769 88.3828 209.339 90.2578Q210.933 92.1328 213.628 92.1328Q216.699 92.1328 218.808 89.9766Q220.917 87.8203 221.292 83.3906L227.644 23.2969L180.394 23.2969L181.355 14.2734L244.332 14.2734L243.371 23.2969L236.574 23.2969L230.41 83.3906Q229.566 91.9453 225.23 96.75Q220.917 101.555 213.628 101.555Q207.464 101.555 203.574 97.8984Q199.707 94.2422 198.066 88.1016L206.527 84.9375ZM188.855 80.7188L180.511 80.7188L185.292 34.8281L208.425 34.8281Q212.855 34.8281 214.613 37.125Q216.394 39.4219 215.925 43.0781L212.457 74.2734L189.535 74.2734L188.855 80.7188ZM190.496 65.5547L204.605 65.5547L206.996 43.4531L192.792 43.4531L190.496 65.5547ZM316.631 8.03906L317.967 15.6328Q305.405 18.0234 290.803 19.3828Q276.202 20.7188 261.53 21.0938L260.85 13.125Q275.546 12.75 289.514 11.6016Q303.483 10.4297 316.631 8.03906ZM310.092 45.8672L310.866 38.7656L265.467 38.7656L264.788 45.2812L256.819 45.2812L258.366 31.1719L269.499 31.1719Q268.538 29.25 267.624 27.4922Q266.71 25.7109 265.749 24.1641L272.077 21.2812Q273.225 23.0156 274.467 25.6172Q275.733 28.1953 276.975 31.1719L285.342 31.1719Q283.702 26.5781 281.592 22.7344L288.108 20.1328Q289.256 22.1484 290.405 25.0781Q291.577 28.0078 292.725 31.1719L298.491 31.1719Q300.694 28.1016 302.405 24.9844Q304.139 21.8672 305.874 18.3047L312.694 21.2812Q310.186 26.1797 306.647 31.1719L311.053 31.1719Q315.178 31.1719 317.194 33.1875Q319.21 35.2031 318.835 38.7656L318.061 45.8672L310.092 45.8672ZM253.374 96.2578L248.569 90.2109Q257.006 83.2031 262.913 75.1406Q268.819 67.0781 272.756 56.8125L258.155 56.8125L259.022 48.75L275.452 48.75Q276.6 44.9062 277.561 40.5938L285.131 41.5547Q284.381 45.2812 283.514 48.75L315.178 48.75L314.335 56.8125L281.006 56.8125Q279.858 60.1641 278.428 63.3281L302.428 63.3281Q306.647 63.3281 308.124 65.9766Q309.624 68.625 307.421 72.1641Q305.311 75.5391 302.428 79.1484Q299.546 82.7344 295.514 86.0859Q304.725 91.4531 315.671 93.7734L312.881 100.875Q305.78 99.1406 299.827 96.5859Q293.874 94.0547 289.069 90.9844Q284.077 94.1484 277.631 96.7266Q271.21 99.3281 263.147 100.781L260.85 93.8672Q267.296 92.625 272.71 90.6562Q278.124 88.6875 282.553 86.0859Q279.389 83.3906 276.928 80.5312Q274.491 77.6484 272.569 74.6719Q268.631 81.0938 263.827 86.4375Q259.022 91.7578 253.374 96.2578ZM279.389 71.2969Q283.022 77.0625 289.069 81.7734Q292.139 79.3594 294.671 76.7344Q297.225 74.0859 299.147 71.2969L279.389 71.2969Z" fill="#19191A" fill-opacity="1.000000" transform="matrix(1 0 0 1 6.40353 6.40352)"/><path d="" fill="#19191A" fill-opacity="1.000000" transform="matrix(1 0 0 1 113.699 121.404)"/><path d="M89.1144 38.3672L88.3409 45.8672L44.7472 45.8672L45.5206 38.3672L62.7003 38.3672L63.2863 33.1875L50.3253 33.1875L51.0988 25.9922L64.0597 25.9922L64.5284 21.1875L49.0831 21.1875L49.9503 13.7109L65.3019 13.7109L65.9816 7.75781L73.9503 7.75781L73.2706 13.7109L89.8644 13.7109L89.1144 21.1875L72.4972 21.1875L72.0284 25.9922L86.1378 25.9922L85.3644 33.1875L71.255 33.1875L70.6691 38.3672L89.1144 38.3672ZM45.8019 24.3516L38.2316 28.3828Q36.5909 23.9766 34.4816 19.8047Q32.3722 15.6328 29.8644 11.7891L37.4581 7.85156Q39.9659 11.9766 42.0753 16.0547Q44.1847 20.1328 45.8019 24.3516ZM26.5128 95.7891L22.2003 88.7812Q25.6456 86.6719 28.9269 84.3516L33.1456 44.3203L25.1769 44.3203L25.9503 36.1641L34.1066 36.1641Q38.2316 36.1641 39.9425 38.5312Q41.6769 40.875 41.3019 43.9453L37.7394 77.3438Q40.2472 75.1406 42.6378 72.75L46.7628 77.8359L49.6456 50.6719L75.38 50.6719Q82.6691 50.6719 82.1066 57.2812L78.5441 89.5547Q78.1691 94.2422 75.6613 97.5938Q73.1769 100.969 68.0909 100.969Q64.5284 100.969 61.8331 98.5078Q59.1613 96.0703 57.8019 90.5156L63.9659 88.875Q64.4347 91.0781 65.3956 92.4375Q66.3566 93.7734 67.6925 93.7734Q69.3331 93.7734 70.0363 91.8516Q70.7628 89.9297 71.0675 87.5391L71.5363 82.9219L54.1691 82.9219L52.2472 100.688L44.3722 100.688L46.4816 80.3203Q36.8956 89.3438 26.5128 95.7891ZM56.1847 63.8203L73.5519 63.8203L74.2316 57.7734L56.7472 57.7734L56.1847 63.8203ZM54.8253 76.1953L72.3097 76.1953L72.8722 70.5469L55.4113 70.5469L54.8253 76.1953ZM112.055 100.688L103.899 100.688L109.758 47.9766Q106.782 52.7812 103.5 57.5859L96.9847 51.8203Q104.367 42.0234 110.133 30.4688Q115.899 18.8906 120.024 7.57031L127.594 11.0156Q124.242 20.625 119.25 30.6094L112.055 100.688ZM120.797 40.5938Q124.149 35.6953 127.125 29.9297Q130.102 24.1641 132.305 18.4688Q134.508 12.75 135.563 8.22656L143.532 9.86719Q142.196 15.1406 140.18 20.625L159.961 20.7188Q164.274 20.7188 165.563 23.1797Q166.875 25.6172 165.61 28.5938Q164.367 32.625 162.399 36.8906Q160.43 41.1562 158.227 45L151.5 41.5547Q153.047 38.6719 154.617 35.3672Q156.211 32.0391 157.547 28.4766L137.016 28.3828Q135.094 32.625 132.774 36.8438Q130.477 41.0625 127.805 45L120.797 40.5938ZM147.961 36.2578L143.742 88.2891Q143.157 95.2969 139.946 98.2734Q136.735 101.25 132.117 101.25Q128.274 101.25 125.297 98.4609Q122.321 95.6953 121.547 89.8359L128.86 88.0078Q129.422 91.2656 130.477 92.2734Q131.532 93.2812 132.492 93.2812Q135.469 93.2812 135.867 87.4219L140.086 36.2578L147.961 36.2578ZM122.227 85.6172L115.313 82.0547Q119.836 73.8047 122.953 65.5078Q126.071 57.1875 128.18 49.3125L135.282 50.9531Q133.266 59.4844 130.008 68.2734Q126.75 77.0625 122.227 85.6172ZM150.164 51.5391L157.453 50.6719Q158.039 58.5469 159.469 67.9922Q160.922 77.4375 163.125 85.9922L155.742 88.1953Q154.196 82.3359 153.047 75.9141Q151.899 69.4688 151.219 63.1875Q150.539 56.9062 150.164 51.5391ZM237.23 28.6875L229.753 98.9531L180.605 98.9531L188.855 20.1328L206.41 20.1328Q209.503 13.8984 211.402 7.75781L219.863 9.58594Q219.089 12.1641 218.082 14.8125Q217.074 17.4375 215.832 20.1328L230.222 20.1328Q234.066 20.1328 235.894 22.5469Q237.722 24.9375 237.23 28.6875ZM194.128 53.7422L225.816 53.7422L228.511 28.9688L196.73 28.9688L194.128 53.7422ZM190.378 90.1172L221.972 90.1172L224.949 62.2734L193.261 62.2734L190.378 90.1172ZM255.671 100.383L249.811 95.6953Q253.561 90.3047 256.538 84.75Q259.514 79.1719 261.811 73.4062Q258.061 67.6641 254.522 62.9531Q258.155 48.4453 260.663 31.6641L255.671 31.5703L256.35 23.5078L261.811 23.6016Q262.772 16.1016 263.639 8.03906L270.553 8.625Q269.78 16.2891 268.819 23.6016L273.038 23.6953Q276.506 23.7891 277.983 25.7109Q279.483 27.6328 278.991 30.6094Q277.467 42.3984 275.288 52.7812Q273.131 63.1406 269.78 72.5625Q271.327 75.0469 272.756 77.6953Q274.186 80.3203 275.639 82.9219L269.967 87.5391Q268.233 84.2578 266.428 81Q264.202 86.0859 261.506 90.8906Q258.835 95.6953 255.671 100.383ZM322.491 11.2031L321.717 18.5156L310.397 18.5156L309.811 24.75L314.124 24.75Q317.499 24.75 318.6 26.3438Q319.702 27.9141 319.421 30.3984L317.592 47.2031L278.991 47.2031L281.405 24.75L291.483 24.75L292.046 18.5156L280.631 18.5156L281.405 11.2031L322.491 11.2031ZM298.491 24.75L302.803 24.75L303.389 18.5156L299.053 18.5156L298.491 24.75ZM286.397 40.6875L290.803 40.6875L291.858 31.1719L287.452 31.1719L286.397 40.6875ZM296.756 40.6875L301.069 40.6875L302.124 31.1719L297.811 31.1719L296.756 40.6875ZM307.022 40.6875L311.546 40.6875L312.6 31.1719L308.077 31.1719L307.022 40.6875ZM261.905 60.6562Q263.358 62.5781 264.881 64.7812Q267.389 56.9062 269.053 48.6094Q270.741 40.2891 271.889 31.7578L267.671 31.6641Q265.256 47.2031 261.905 60.6562ZM314.616 52.9688L313.842 59.9766L279.952 59.9766L280.725 52.9688L314.616 52.9688ZM316.538 66.1172L315.764 73.125L300.319 73.125L298.96 90.1172Q298.491 96.2578 295.983 98.7422Q293.499 101.25 290.124 101.25Q286.678 101.25 284.616 98.6953Q282.553 96.1641 282.061 92.625L288.108 90.9844Q288.694 93.5859 289.749 93.5859Q291.178 93.5859 291.483 89.25L292.725 73.125L276.108 73.125L276.881 66.1172L316.538 66.1172ZM287.827 78.6094Q285.999 83.0156 283.303 87.8203Q280.631 92.625 276.506 97.5234L270.928 93.0938Q274.397 88.9688 276.975 84.7969Q279.577 80.625 281.686 75.9141L287.827 78.6094ZM309.905 97.9922Q307.796 93.4688 305.921 88.6875Q304.046 83.8828 302.71 78.9844L309.225 76.6875Q312.108 86.1797 316.233 94.7344L309.905 97.9922Z" fill="#19191A" fill-opacity="1.000000" transform="matrix(1 0 0 1 6.40353 233.404)"/></svg>